<?xml version="1.0" encoding="UTF-8"?>
<!-- Generator: visioncortex VTracer 0.6.4 -->
<svg version="1.1" xmlns="http://www.w3.org/2000/svg" width="32" height="32">
<path d="M0 0 C1 -0.01 2 -0.02 3.02 -0.03 C10.25 0.04 10.25 0.04 13.65 2.41 C15.54 5.42 15.64 7.07 15 10.56 C11.79 14.72 8.99 16.22 4 17.56 C0.27 17.93 0.27 17.93 -3.62 18 C-4.92 18.04 -6.21 18.08 -7.54 18.12 C-11 17.56 -11 17.56 -13.43 15.25 C-15.5 11.71 -15.58 9.61 -15 5.56 C-11.7 -1.02 -6.54 -0.16 0 0 Z M-8 6.56 C-8.59 8.51 -8.59 8.51 -9 10.56 C-7.42 12.15 -5.62 11.91 -3.44 12.12 C-2.61 12.21 -1.78 12.29 -0.93 12.38 C-0.3 12.44 0.34 12.5 1 12.56 C1.33 11.57 1.66 10.58 2 9.56 C4.64 9.56 7.28 9.56 10 9.56 C9.67 8.57 9.34 7.58 9 6.56 C3.09 5.79 -2.13 5.41 -8 6.56 Z " fill="#00528E" transform="translate(16,7.4375)"/>
<path d="M0 0 C3.44 0.56 3.44 0.56 5.38 2.44 C6.44 4.56 6.44 4.56 6.44 6.56 C4.13 6.89 1.82 7.22 -0.56 7.56 C-0.56 8.55 -0.56 9.54 -0.56 10.56 C2.08 10.89 4.72 11.22 7.44 11.56 C6.29 14.03 5.39 15.61 3.44 17.56 C0.06 18 0.06 18 -3.56 17.56 C-6.76 14.86 -7.47 13.21 -8.06 9.06 C-7.27 3.49 -5.71 0.9 0 0 Z " fill="#46E5F4" transform="translate(8.5625,7.4375)"/>
</svg>
